<svg id="Capa_1" enable-background="new 0 0 512 512" height="512" viewBox="0 0 512 512" width="512" xmlns="http://www.w3.org/2000/svg"><g><path d="m205.228 191.514v12.674c0 4.142 3.358 7.5 7.5 7.5s7.5-3.358 7.5-7.5v-12.674c0-4.142-3.358-7.5-7.5-7.5s-7.5 3.358-7.5 7.5z"/><path d="m352.138 204.188v-12.674c0-4.142-3.358-7.5-7.5-7.5s-7.5 3.358-7.5 7.5v12.674c0 4.142 3.358 7.5 7.5 7.5s7.5-3.358 7.5-7.5z"/><path d="m255.64 208.738c5.813 6.669 14.211 10.494 23.043 10.494s17.23-3.825 23.043-10.494c2.721-3.123 2.396-7.86-.727-10.582-3.123-2.721-7.86-2.396-10.582.727-2.962 3.399-7.24 5.349-11.734 5.349s-8.772-1.95-11.734-5.349c-2.722-3.123-7.459-3.448-10.582-.727-3.123 2.722-3.448 7.46-.727 10.582z"/><path d="m87.99 146.602c-2.349 8.824-4.089 17.842-5.192 26.997-7.693 9.12-12.343 20.887-12.343 33.725 0 28.885 23.499 52.384 52.384 52.384 1.961 0 3.923-.121 5.877-.342 9.624 23.138 24.628 44.008 44.174 60.86v42.563l-32.479 11.086c-20.595 7.031-31.575 29.386-24.544 49.983 3.951 11.574 13.029 20.885 25.411 24.822-4.728 17.632-7.124 36.367-7.124 55.819 0 4.142 3.358 7.5 7.5 7.5h274.061c4.142 0 7.5-3.358 7.5-7.5 0-19.457-2.397-38.195-7.126-55.828 11.516-3.653 21.219-12.527 25.412-24.813 7.031-20.595-3.946-42.952-24.544-49.984l-32.479-11.086v-42.336c19.618-16.863 34.652-37.808 44.268-61.078 1.923.214 3.854.333 5.782.333 28.885 0 52.384-23.499 52.384-52.384 0-12.838-4.65-24.606-12.344-33.726-5.921-49.194-30.005-94.02-68.019-126.438-3.152-2.688-7.885-2.312-10.573.84s-2.312 7.886.84 10.573c31.151 26.566 52.189 62.13 60.371 101.526-7.124-3.432-14.94-5.117-22.353-5.158-7.249-16.6-24.929-26.353-43.025-23.854-12.336 1.699-24.98 2.561-37.58 2.561-26.84 0-53.555-3.821-79.305-11.767-3.857-1.191-8.132.915-9.378 4.955-1.222 3.958.997 8.157 4.955 9.378 25.93 8.003 54.05 12.434 83.729 12.434 13.692 0 27.026-.965 39.626-2.702.021-.003.043-.004.064-.007 13.292-1.787 25.868 6.826 28.689 19.682 2.191 9.991 3.42 20.653 3.42 31.708 0 37.858-14.474 74.698-41.589 102.603-.629-10.445-9.428-19.261-20.479-19.261h-45.902v-5.518c0-21.597-17.542-39.375-39.375-39.375-21.665 0-39.375 17.622-39.375 39.375v5.518h-45.902c-10.918 0-19.715 8.591-20.463 19.025-24.161-24.909-39.546-58.251-41.412-94.893-.669-13.195.415-26.859 3.514-40.421 4.682-20.493 14.138-40.879 28.121-58.515 8.595-10.838 24.125-12.959 35.349-4.93 12.597 9.011 26.6 16.968 40.343 23.244 3.734 1.705 8.207.084 9.938-3.707 1.72-3.767.062-8.217-3.707-9.938-14.076-6.428-26.747-13.858-37.848-21.8-17.759-12.703-42.281-9.273-55.829 7.81-13.755 17.337-23.815 37.106-29.535 58.406-7.343.136-14.865 1.858-21.689 5.145 10.193-48.894 40.407-92.119 84.097-118.687 28.289-17.18 60.843-26.409 94.397-26.409 33.37 0 66.043 9.15 94.485 26.46 3.54 2.154 8.153 1.031 10.306-2.508 2.153-3.538 1.031-8.152-2.507-10.306-30.793-18.74-66.162-28.646-102.284-28.646-33.993 0-67.036 8.75-96.233 25.115-10.704-12.48-26.126-20.411-42.458-21.576-29.233-2.085-55.464 16.02-63.786 44.029-4.655 15.667-15.68 28.082-33.276 32.951-18.01 4.981-23.882 27.702-10.637 40.874 15.243 15.16 34.03 25.528 55.697 25.209zm346.013 98.102c4.468-14.671 7.024-30.859 7.024-47.375 0-8.881-.749-18.088-2.263-27.147 18.758 2.156 33.146 18.07 33.146 37.143.001 20.818-17.091 37.67-37.907 37.379zm-303.941 174.31c-4.352-12.749 2.443-26.59 15.194-30.942l39.167-13.37c12.895-4.399 26.655 2.651 30.942 15.194 4.311 12.63-2.394 26.573-15.194 30.942-11.801 4.028-25.112 8.572-39.167 13.369-12.826 4.372-26.611-2.505-30.942-15.193zm19.219 77.986c.556-16.244 2.929-31.868 7.076-46.603 3.24-.273 6.615-1.012 9.493-1.994l7.04-2.403v15.743c0 11.313 9.204 20.518 20.517 20.518h53.402c4.149 0 7.5-3.365 7.5-7.5v-13.018c0-13.405 10.901-24.375 24.375-24.375 13.378 0 24.375 10.876 24.375 24.375v13.017c0 4.138 3.354 7.5 7.5 7.5h53.402c11.313 0 20.517-9.204 20.517-20.518v-15.742c4.86 1.499 9.656 3.847 16.531 4.39 4.148 14.736 6.521 30.362 7.078 46.61zm278.024-77.986c-4.346 12.73-18.231 19.53-30.942 15.194-7.134-2.435-28.073-9.582-39.167-13.369-12.749-4.352-19.547-18.191-15.194-30.942 4.316-12.647 18.056-19.589 30.941-15.194.105.036 1.715.586 1.61.55l37.557 12.82c12.75 4.35 19.546 18.19 15.195 30.941zm-180.497-123.345c4.138 0 7.5-3.354 7.5-7.5v-13.018c0-13.466 10.962-24.375 24.375-24.375 13.483 0 24.375 10.979 24.375 24.375v13.018c0 4.132 3.348 7.5 7.5 7.5h53.402c3.042 0 5.517 2.475 5.517 5.517v15.789 41.663c-.042-.005-.083-.007-.125-.012-17.974-2.002-35.493 8.676-41.546 26.424-6.95 20.352 3.724 42.877 24.543 49.983l16.628 5.676.5.17v20.863c0 3.042-2.475 5.518-5.517 5.518h-45.902v-5.517c0-21.622-17.564-39.375-39.375-39.375-21.711 0-39.375 17.663-39.375 39.375v5.518h-45.902c-3.042 0-5.517-2.475-5.517-5.518v-20.863l17.127-5.847c19.263-6.575 30.144-26.693 25.65-46.113-4.516-19.538-22.974-32.49-42.661-30.293-.039.004-.077.006-.116.011v-41.884-15.568c0-3.043 2.475-5.517 5.517-5.517zm-123.378-50.966c-20.836.336-37.974-16.568-37.974-37.379 0-18.447 13.778-34.82 32.91-37.113.068-.008.135-.018.203-.026-1.844 11.07-2.595 22.914-2.033 34.833.636 13.49 2.935 26.819 6.894 39.685zm-76.501-149.727c22.329-6.175 37.458-22.274 43.656-43.136 6.368-21.433 26.417-34.907 48.34-33.339 11.549.824 22.509 6.143 30.519 14.58-35.434 23.623-62.474 58.213-76.716 98.22-17.379 1.996-34.13-4.901-49.857-20.544-5.068-5.04-2.873-13.864 4.058-15.781z"/></g></svg>