<svg id="Capa_1" enable-background="new 0 0 512 512" height="512" viewBox="0 0 512 512" width="512" xmlns="http://www.w3.org/2000/svg"><g><g><path d="m208.532 464.283-29.016 29.016c-4.848 4.849-12.939 4.85-17.787 0l-143.027-143.027c-4.904-4.904-4.904-12.884 0-17.787l148.993-148.992c2.935-2.936 2.935-7.693 0-10.629-2.934-2.933-7.692-2.933-10.628 0l-148.994 148.992c-10.764 10.764-10.764 28.28 0 39.044l143.027 143.027c5.383 5.382 12.452 8.073 19.522 8.073s14.139-2.691 19.522-8.073l29.016-29.016c2.934-2.936 2.934-7.693 0-10.629-2.935-2.932-7.693-2.932-10.628.001z"/><path d="m361.446 311.369-131.658 131.658c-2.736 2.737-2.917 7.255-.399 10.197 2.81 3.283 7.971 3.486 11.028.431l131.658-131.658c2.935-2.936 2.935-7.693 0-10.628-2.936-2.933-7.694-2.933-10.629 0z"/><path d="m503.316 8.684c-10.485-10.483-28.412-11.51-50.484-2.892-20.069 7.835-41.87 22.899-61.389 42.417-10.556 10.557-19.794 21.781-27.305 33.038l-86.682-4.317c-14.801-.737-29.307 4.851-39.79 15.333l-59.344 59.344c-2.935 2.936-2.935 7.693 0 10.629 2.935 2.934 7.693 2.934 10.628 0l59.344-59.344c7.486-7.486 17.849-11.472 28.415-10.951l78.677 3.918c-2.457 4.636-4.6 9.232-6.359 13.739-2.518 6.451-4.188 12.534-5.064 18.194-2.887 1.417-5.595 3.315-7.993 5.712-5.679 5.68-8.808 13.231-8.808 21.263 0 8.033 3.128 15.584 8.808 21.263 5.862 5.861 13.563 8.793 21.263 8.793s15.401-2.931 21.262-8.793c5.68-5.679 8.807-13.23 8.807-21.263 0-8.031-3.127-15.583-8.807-21.263-5.192-5.191-11.827-8.079-18.626-8.672.778-3.082 1.819-6.34 3.158-9.769 2.332-5.973 5.408-12.141 9.112-18.37l22.456 1.118c10.639.53 19.064 8.954 19.594 19.593l1.345 27.014c0 .008.001.015.001.023l4.524 90.851c.527 10.572-3.464 20.928-10.95 28.413l-26.407 26.407c-2.736 2.737-2.918 7.255-.399 10.197 2.81 3.283 7.971 3.486 11.028.431l26.407-26.407c10.481-10.482 16.07-24.984 15.332-39.789l-4.317-86.69c11.394-7.594 22.493-16.752 33.039-27.297 19.518-19.519 34.582-41.321 42.417-61.39 8.616-22.071 7.589-39.999-2.893-50.483zm-156.719 156.719c-2.841-2.84-4.405-6.617-4.405-10.634 0-2.874.814-5.62 2.311-7.994 1.363 5.217 3.818 9.71 7.416 13.307 3.542 3.544 8.041 6.043 13.288 7.425-5.805 3.634-13.565 2.941-18.61-2.104zm21.27-21.269c2.552 2.551 4.063 5.86 4.346 9.417-4.142-.462-7.394-1.823-9.666-4.097-2.289-2.289-3.655-5.577-4.124-9.661 3.445.272 6.814 1.712 9.444 4.341zm85.296-34.204c-7.4 7.401-15.306 14.216-23.296 20.153l-.668-13.425c-.916-18.385-15.471-32.94-33.856-33.857l-13.459-.67c5.881-7.914 12.663-15.768 20.189-23.293 38.349-38.349 78.535-51.604 90.616-39.526 12.082 12.084-1.179 52.272-39.526 90.618z"/><path d="m273.208 191.821c-2.936-2.934-7.694-2.935-10.628-.001l-19.3 19.3c-.003.003-.007.006-.01.009-2.935 2.936-2.935 7.693 0 10.629l48.072 48.072c2.906 2.906 7.739 2.943 10.656.027l19.309-19.309c2.935-2.936 2.935-7.693 0-10.629-2.936-2.933-7.693-2.933-10.629 0l-13.995 13.995-13.421-13.421 13.995-13.994c2.935-2.936 2.935-7.693 0-10.629-2.936-2.934-7.693-2.934-10.629 0l-13.994 13.995-13.422-13.422 13.995-13.994c2.935-2.935 2.935-7.693.001-10.628z"/><path d="m202.185 252.269c-2.935 2.936-2.935 7.693 0 10.629l48.072 48.071c2.896 2.894 7.732 2.894 10.628 0l22.465-22.464c2.935-2.936 2.935-7.693 0-10.629-2.935-2.933-7.693-2.933-10.629 0l-17.15 17.151-42.758-42.758c-2.935-2.933-7.692-2.933-10.628 0z"/><path d="m165.355 286.707c-4.24 4.24-5.109 10.597-2.163 15.821l33.419 59.236c2.17 3.847 7.356 4.986 10.945 2.401 3.066-2.208 4-6.499 2.146-9.786l-8.677-15.38 16.622-16.621 15.379 8.677c3.618 2.041 8.2.762 10.238-2.853 2.039-3.616.762-8.199-2.852-10.238l-59.238-33.42c-5.223-2.946-11.58-2.075-15.819 2.163zm28.003 38.702-13.851-24.55 24.551 13.851z"/><path d="m165.963 384.655c-6.633 5.869-12.03 3.96-13.239 3.412-3.839-2.098-8.793-.382-10.523 3.622-1.704 3.946.345 8.645 4.395 10.085 1.909.83 5.508 2.059 10.087 2.059 5.838 0 11.43-2.092 16.153-5.461 5.269-3.758 9.828-8.941 11.998-15.109.806-2.291 1.274-4.703 1.348-7.132.204-6.731-2.651-13.727-7.638-18.715-4.083-4.084-9.053-6.51-14.372-7.014-7.131-.676-14.552 2.033-22.066 8.054-7.004 5.612-11.196 3.305-13.073 1.427-1.108-1.107-6.31-6.949 0-13.259 4.501-4.501 9.161-3.198 9.676-3.034 2.061.38 4.039.289 5.889-.838 1.667-1.015 2.901-2.671 3.386-4.563 1.072-4.186-1.731-8.531-5.973-9.285-5.603-1.398-15.368-1.147-23.607 7.092-12.661 12.662-6.937 27.578 0 34.516 6.71 6.708 19.402 10.647 33.099-.326 10.302-8.255 14.741-3.814 16.413-2.142 2.191 2.19 3.611 5.431 3.162 8.554-.467 3.248-2.737 5.953-5.115 8.057z"/></g></g></svg>