<svg width="20" height="20" viewBox="0 0 20 20" fill="none" xmlns="http://www.w3.org/2000/svg">
<g clip-path="url(#clip0)">
<path d="M9.11384 17.3914C4.5305 17.3914 0.833282 13.688 0.833282 9.12763C0.833282 4.56725 4.5305 0.833252 9.11384 0.833252C13.6972 0.833252 17.3944 4.53665 17.3944 9.12763C17.3944 10.5967 16.9972 12.0353 16.2944 13.2901C16.0499 13.7186 15.4694 13.8716 15.0416 13.6268C14.6138 13.3819 14.4611 12.8004 14.7055 12.3719C15.2861 11.3925 15.5611 10.2907 15.5611 9.12763C15.5305 5.54666 12.6583 2.66965 9.11384 2.66965C5.56939 2.66965 2.66662 5.54666 2.66662 9.12763C2.66662 12.7086 5.53884 15.5856 9.11384 15.5856C10.2444 15.5856 11.3749 15.2796 12.3527 14.7286C12.7805 14.4838 13.3611 14.6368 13.6055 15.0653C13.8499 15.4938 13.6972 16.0753 13.2694 16.3202C11.9861 17.0241 10.5499 17.3914 9.11384 17.3914Z" fill="#656973"/>
<path d="M9.11384 17.3914C4.5305 17.3914 0.833282 13.688 0.833282 9.12763C0.833282 7.65852 1.2305 6.22001 1.93328 4.96514C2.17773 4.53665 2.75828 4.38361 3.18606 4.62847C3.61384 4.87332 3.76662 5.45484 3.52217 5.88334C2.97217 6.86275 2.66662 7.99519 2.66662 9.12763C2.66662 12.678 5.53884 15.5856 9.11384 15.5856C12.6888 15.5856 15.5611 12.7086 15.5611 9.12763C15.5611 5.54666 12.6583 2.66965 9.11384 2.66965C7.98328 2.66965 6.85273 2.97571 5.87495 3.52663C5.44717 3.77148 4.86662 3.61845 4.62217 3.18996C4.37773 2.76147 4.5305 2.17994 4.95828 1.93509C6.21106 1.23114 7.64717 0.833252 9.11384 0.833252C13.6666 0.833252 17.3638 4.53665 17.3638 9.12763C17.3638 13.7186 13.6666 17.3914 9.11384 17.3914Z" fill="#656973"/>
<path d="M18.25 19.1665C18.0055 19.1665 17.7916 19.0747 17.6083 18.8911L13.7277 15.004C13.3611 14.6368 13.3611 14.0552 13.7277 13.7186C14.0944 13.3513 14.675 13.3513 15.0111 13.7186L18.8916 17.6056C19.2583 17.9729 19.2583 18.5544 18.8916 18.8911C18.7083 19.0747 18.4638 19.1665 18.25 19.1665Z" fill="#656973"/>
</g>
<defs>
<clipPath id="clip0">
<rect width="18.3333" height="18.3333" fill="white" transform="translate(0.833282 0.833252)"/>
</clipPath>
</defs>
</svg>
