<svg width="24" height="24" viewBox="0 0 24 24" fill="none" xmlns="http://www.w3.org/2000/svg">
<g clip-path="url(#clip0)">
<path d="M20.4742 18.0077H7.18639C6.63731 18.0077 6.19804 17.601 6.08822 17.0835L4.6606 8.32283C4.62399 7.99014 4.69721 7.65746 4.91684 7.43567C5.13647 7.17691 5.42932 7.02905 5.75877 7.02905H21.9019C22.2313 7.02905 22.5242 7.17691 22.7438 7.43567C22.9634 7.69442 23.0366 8.02711 23 8.32283L21.5724 17.0835C21.4626 17.638 21.0233 18.0077 20.4742 18.0077ZM8.10153 15.7898H19.5225L20.5841 9.24695H7.03997L8.10153 15.7898Z" fill="black"/>
<path d="M5.7588 9.24708C5.35613 9.24708 4.95347 8.98833 4.77044 8.58171L3.23301 5.2179H2.09823C1.47593 5.2179 1.00006 4.73735 1.00006 4.10895C1.00006 3.48054 1.47593 3 2.09823 3H3.92851C4.36778 3 4.73384 3.25875 4.91687 3.66537L6.71054 7.69455C6.96678 8.24903 6.71054 8.9144 6.16146 9.17315C6.05164 9.21012 5.90522 9.24708 5.7588 9.24708Z" fill="black"/>
<path d="M8.90691 22.037C9.71558 22.037 10.3711 21.375 10.3711 20.5584C10.3711 19.7418 9.71558 19.0798 8.90691 19.0798C8.09824 19.0798 7.44269 19.7418 7.44269 20.5584C7.44269 21.375 8.09824 22.037 8.90691 22.037Z" fill="black"/>
<path d="M18.3146 22.037C19.1232 22.037 19.7788 21.375 19.7788 20.5584C19.7788 19.7418 19.1232 19.0798 18.3146 19.0798C17.5059 19.0798 16.8503 19.7418 16.8503 20.5584C16.8503 21.375 17.5059 22.037 18.3146 22.037Z" fill="black"/>
</g>
<defs>
<clipPath id="clip0">
<rect width="22" height="19" fill="white" transform="translate(1.00006 3)"/>
</clipPath>
</defs>
</svg>
