<svg width="33" height="22" viewBox="0 0 33 22" fill="none" xmlns="http://www.w3.org/2000/svg">
<g clip-path="url(#clip0)">
<path d="M17.6826 20.8456C17.1247 20.8456 16.698 20.4189 16.698 19.861V17.0386C16.698 14.8397 15.7463 13.9208 13.5802 13.9208H7.83694C5.63807 13.9208 4.71914 14.8725 4.71914 17.0386V19.861C4.71914 20.4189 4.29249 20.8456 3.73457 20.8456C3.17665 20.8456 2.75 20.4189 2.75 19.861V17.0386C2.75 13.7567 4.55504 11.9517 7.83694 11.9517H13.5802C16.8621 11.9517 18.6672 13.7567 18.6672 17.0386V19.861C18.6672 20.3861 18.2405 20.8456 17.6826 20.8456Z" fill="black"/>
<path d="M10.6923 11.1313C7.93548 11.1313 5.7038 8.89956 5.7038 6.14277C5.7038 3.38598 7.93548 1.1543 10.6923 1.1543C13.4491 1.1543 15.6808 3.38598 15.6808 6.14277C15.6808 8.89956 13.4491 11.1313 10.6923 11.1313ZM10.6923 3.12343C9.01851 3.12343 7.67293 4.46901 7.67293 6.14277C7.67293 7.81654 9.01851 9.16212 10.6923 9.16212C12.366 9.16212 13.7116 7.81654 13.7116 6.14277C13.7116 4.46901 12.366 3.12343 10.6923 3.12343Z" fill="black"/>
</g>
<rect x="21" y="7" width="12" height="2" rx="1" fill="black"/>
<rect x="23" y="12" width="10" height="2" rx="1" fill="black"/>
<defs>
<clipPath id="clip0">
<rect width="15.95" height="19.6914" fill="white" transform="translate(2.75 1.1543)"/>
</clipPath>
</defs>
</svg>
